<?xml version="1.0" encoding="utf-8"?>
<!-- Generator: Adobe Illustrator 19.1.1, SVG Export Plug-In . SVG Version: 6.00 Build 0)  -->
<svg version="1.1" id="Слой_1" xmlns="http://www.w3.org/2000/svg" xmlns:xlink="http://www.w3.org/1999/xlink" x="0px" y="0px"
	 viewBox="-37 38 25 25" style="enable-background:new -37 38 25 25;" xml:space="preserve">
<g>
	<path style="fill:#9A1524;" d="M-31.54,41.197h14.502c0.257,0,0.485,0.228,0.485,0.485v17.385c0,0.257-0.228,0.485-0.485,0.485
		H-31.54c-0.285,0-0.514-0.228-0.514-0.485V41.683C-32.053,41.426-31.825,41.197-31.54,41.197L-31.54,41.197z M-31.026,57.697
		c0.542-1.484,1.656-1.913,2.826-2.341c0.856-0.314,1.713-0.657,2.284-1.456v-1.656c-0.143-0.114-0.285-0.285-0.428-0.485
		c-0.2-0.314-0.457-0.685-0.571-0.913c-0.114-0.029-0.257-0.143-0.4-0.285l0,0l0,0c-0.143-0.171-0.285-0.428-0.4-0.714
		c-0.114-0.257-0.171-0.542-0.171-0.799l0,0l0,0c0-0.257,0.057-0.457,0.228-0.571c-0.029-0.228-0.057-0.485-0.057-0.742
		c0-0.885,0.257-1.798,0.714-2.541c0.485-0.742,1.17-1.342,2.055-1.542c0.2-0.057,0.428-0.086,0.657-0.086
		c0.343,0,0.685,0.057,0.999,0.171c0.314,0.114,0.599,0.285,0.856,0.485c2.426,0.799,1.884,3.169,1.656,4.225
		c-0.029,0.086-0.057,0.171-0.057,0.228c0.314,0.257,0.343,0.685,0.228,1.113c-0.057,0.257-0.2,0.485-0.343,0.685
		c-0.143,0.228-0.314,0.4-0.485,0.457c-0.086,0.029-0.2,0.057-0.285,0.029c-0.143,0.314-0.314,0.571-0.485,0.828
		c-0.2,0.257-0.4,0.485-0.628,0.685v1.484c0.657,0.657,1.542,1.028,2.426,1.427c1.199,0.514,2.341,0.999,2.855,2.084V42.196h-13.474
		V57.697z M-17.694,58.554c-0.171-1.599-1.484-2.17-2.883-2.798c-0.942-0.4-1.884-0.828-2.598-1.542
		c-0.057-0.057-0.086-0.114-0.086-0.171v-1.684l0,0c0-0.057,0.029-0.114,0.086-0.143c0.228-0.2,0.428-0.428,0.628-0.685
		c0.2-0.285,0.4-0.599,0.542-0.942c0.029-0.029,0.057-0.057,0.086-0.086c0.086-0.057,0.228-0.057,0.285,0.029
		c0,0.029,0.029,0,0.029,0c0.086-0.029,0.2-0.143,0.314-0.285c0.114-0.171,0.228-0.371,0.285-0.571
		c0.086-0.285,0.057-0.571-0.171-0.714c-0.057-0.029-0.114-0.114-0.114-0.2c0.029-0.086,0.057-0.228,0.086-0.428
		c0.2-0.913,0.685-3.055-1.399-3.711l0,0c0,0-0.029-0.029-0.057-0.029c-0.228-0.2-0.485-0.343-0.771-0.457
		c-0.257-0.086-0.542-0.143-0.856-0.143c-0.2,0-0.371,0.029-0.571,0.086c-0.742,0.171-1.342,0.685-1.77,1.342
		c-0.429,0.685-0.657,1.513-0.657,2.312c0,0.285,0.029,0.571,0.086,0.828l0,0l0,0c0.029,0.114-0.029,0.228-0.143,0.257
		c-0.086,0.029-0.114,0.114-0.114,0.228l0,0l0,0c0,0.2,0.057,0.428,0.143,0.657c0.086,0.228,0.2,0.428,0.343,0.571l0,0
		c0.057,0.086,0.086,0.171,0.086,0.143c0.029,0,0.029,0,0.057,0c0.114-0.029,0.228,0.029,0.257,0.143c0,0,0.029,0.029,0.057,0.086
		c0.086,0.2,0.314,0.542,0.542,0.856c0.171,0.228,0.143,0.485,0.2,0.485c0.029,0,0.029,0,0.057,0c0.114,0,0.228,0.086,0.228,0.2
		v1.77l0,0c0,0.029-0.029,0.086-0.029,0.114c-0.657,0.971-1.599,1.342-2.541,1.684c-1.199,0.457-2.398,0.885-2.769,2.798
		C-30.826,58.554-17.694,58.554-17.694,58.554z M-15.668,39.199c0.029,0.029,0.057,0.057,0.086,0.057
		c0.942,0.885,0.856,1.599,0.771,2.398c-0.057,0.571-0.114,1.199,0.428,2.112c0.143,0.2,0.314,0.571,0.428,1.028
		c0.086,0.343,0.143,0.714,0.143,1.113c0.029,0.428-0.057,0.885-0.143,1.256c-0.114,0.542-0.285,0.999-0.4,1.228
		c-0.485,0.828-0.571,1.627-0.485,2.369c0.086,0.771,0.343,1.513,0.628,2.112c0.228,0.571,0.343,1.199,0.343,1.827
		c0,0.657-0.114,1.342-0.343,1.884c-0.086,0.2-0.171,0.4-0.257,0.571c-0.2,0.4-0.4,0.799-0.457,1.342
		c-0.057,0.285,0.114,0.771,0.257,1.142c0.086,0.257,0.171,0.485,0.2,0.685c0.029,0.228,0.029,0.428-0.029,0.628
		c-0.057,0.257-0.2,0.514-0.4,0.714c-0.2,0.171-0.428,0.314-0.714,0.343c-0.2,0.029-0.371,0.029-0.571,0
		c-0.114-0.029-0.2-0.029-0.314-0.057c-0.171-0.029-0.4-0.086-0.628-0.057c-0.314,0.057-0.657,0.171-0.999,0.285
		c-0.343,0.143-0.657,0.285-0.913,0.4c-0.485,0.228-1.085,0.371-1.656,0.371s-1.113-0.114-1.599-0.371
		c-0.542-0.257-1.142-0.542-1.77-0.628c-0.599-0.086-1.256,0.029-1.941,0.485c-0.2,0.114-0.599,0.314-1.085,0.428
		c-0.341,0.086-0.712,0.143-1.112,0.143c-0.343,0-0.685-0.057-0.971-0.143c-0.4-0.143-0.742-0.314-0.913-0.457
		c-0.714-0.514-1.256-0.457-1.713-0.4c-0.371,0.057-0.714,0.086-1.085-0.029c-0.4-0.086-0.714-0.285-0.942-0.599
		c-0.228-0.285-0.371-0.657-0.371-1.085c0-0.285,0.086-0.542,0.171-0.828c0.086-0.343,0.171-0.685,0.143-0.942
		c-0.029-0.457-0.285-0.856-0.485-1.199c-0.171-0.257-0.314-0.485-0.4-0.742c-0.228-0.542-0.371-1.228-0.371-1.884
		c0-0.628,0.114-1.256,0.371-1.827c0.257-0.599,0.542-1.342,0.628-2.112c0.086-0.742-0.029-1.542-0.485-2.369
		c-0.114-0.228-0.314-0.685-0.428-1.228c-0.085-0.371-0.143-0.827-0.143-1.256c0-0.4,0.057-0.771,0.171-1.113
		c0.114-0.457,0.285-0.828,0.4-1.028c0.542-0.885,0.485-1.599,0.4-2.198c-0.086-0.856-0.171-1.57,0.856-2.341l0,0l0,0h0.029
		c0.571-0.4,1.028-0.314,1.542-0.257c0.456,0.058,0.999,0.143,1.712-0.371c0.172-0.114,0.514-0.314,0.914-0.428
		C-28.885,38.086-28.542,38-28.2,38c0.4,0,0.771,0.057,1.113,0.143c0.485,0.143,0.885,0.314,1.085,0.457
		c0.685,0.457,1.342,0.542,1.941,0.457c0.628-0.086,1.228-0.371,1.77-0.628c0.485-0.257,1.028-0.371,1.599-0.371
		s1.17,0.143,1.656,0.371c0.257,0.114,0.571,0.285,0.913,0.4c0.343,0.143,0.685,0.228,0.999,0.285c0.143,0.029,0.285,0,0.428-0.029
		C-16.353,38.999-16.039,38.942-15.668,39.199L-15.668,39.199z M-16.067,61.009c0.029,0,0.057,0,0.086,0
		c0.057,0.029,0.143,0.029,0.2,0.029c0.086-0.029,0.143-0.057,0.2-0.114c0.057-0.057,0.114-0.114,0.114-0.2
		c0.029-0.086,0.029-0.171,0.029-0.228c-0.029-0.114-0.086-0.314-0.171-0.514c-0.171-0.485-0.371-1.085-0.314-1.599
		c0.086-0.714,0.314-1.199,0.542-1.656c0.086-0.171,0.171-0.343,0.228-0.514c0.2-0.457,0.285-0.971,0.285-1.513
		c0-0.485-0.086-0.999-0.257-1.427c-0.314-0.685-0.628-1.484-0.714-2.398c-0.114-0.913,0-1.941,0.599-2.969
		c0.086-0.171,0.228-0.514,0.314-0.942c0.086-0.343,0.143-0.714,0.114-1.056c0-0.285-0.029-0.599-0.114-0.856
		c-0.086-0.343-0.228-0.628-0.314-0.771c-0.714-1.17-0.628-1.998-0.542-2.74c0.029-0.514,0.086-0.971-0.457-1.513
		c-0.057,0-0.143,0-0.257,0.029c-0.2,0.029-0.428,0.086-0.742,0.057c-0.428-0.057-0.856-0.2-1.228-0.343
		c-0.371-0.143-0.714-0.285-0.999-0.428c-0.371-0.171-0.799-0.285-1.228-0.285c-0.4,0-0.799,0.086-1.17,0.257
		c-0.571,0.314-1.285,0.628-2.084,0.742s-1.684-0.029-2.598-0.628c-0.143-0.086-0.428-0.2-0.771-0.314
		c-0.284-0.059-0.57-0.116-0.855-0.116c-0.257,0-0.485,0.057-0.714,0.114c-0.285,0.086-0.514,0.229-0.628,0.314
		c-1.027,0.743-1.77,0.628-2.426,0.543c-0.314-0.057-0.6-0.086-0.828,0.085c-0.571,0.4-0.514,0.856-0.457,1.399
		c0.086,0.771,0.171,1.656-0.542,2.826c-0.086,0.143-0.2,0.428-0.314,0.771c-0.057,0.257-0.114,0.571-0.114,0.856
		c0,0.343,0.057,0.714,0.114,1.056c0.114,0.428,0.228,0.771,0.314,0.942c0.599,1.028,0.714,2.055,0.628,2.969
		c-0.114,0.913-0.428,1.713-0.714,2.398c-0.2,0.428-0.285,0.942-0.285,1.427c0,0.542,0.114,1.056,0.285,1.513
		c0.086,0.2,0.2,0.371,0.314,0.571c0.285,0.457,0.571,0.942,0.657,1.627c0.057,0.457-0.086,0.913-0.2,1.313
		c-0.057,0.228-0.114,0.457-0.114,0.542c0,0.228,0.057,0.371,0.143,0.514c0.086,0.086,0.228,0.171,0.371,0.2
		c0.029,0.029,0.057,0.029,0.086,0.029c0.2,0.057,0.428,0.029,0.685,0c0.628-0.057,1.37-0.143,2.398,0.599
		c0.114,0.086,0.343,0.2,0.628,0.285c0.228,0.057,0.457,0.114,0.714,0.114c0.285,0,0.571-0.029,0.856-0.114
		c0.343-0.086,0.628-0.228,0.771-0.314c0.913-0.599,1.798-0.714,2.598-0.599c0.799,0.086,1.484,0.4,2.084,0.714
		c0.371,0.171,0.771,0.257,1.17,0.257c0.428,0,0.856-0.086,1.228-0.257c0.285-0.143,0.628-0.314,0.999-0.457
		s0.799-0.257,1.228-0.314c0.4-0.057,0.685,0,0.942,0.057C-16.21,60.98-16.124,61.009-16.067,61.009L-16.067,61.009L-16.067,61.009z
		"/>
</g>
</svg>
