<svg xmlns="http://www.w3.org/2000/svg" width="25" height="25" viewBox="0 0 25 25">
  <metadata><?xpacket begin="﻿" id="W5M0MpCehiHzreSzNTczkc9d"?>
<x:xmpmeta xmlns:x="adobe:ns:meta/" x:xmptk="Adobe XMP Core 5.6-c138 79.159824, 2016/09/14-01:09:01        ">
   <rdf:RDF xmlns:rdf="http://www.w3.org/1999/02/22-rdf-syntax-ns#">
      <rdf:Description rdf:about=""/>
   </rdf:RDF>
</x:xmpmeta>
                                                                                                    
                                                                                                    
                                                                                                    
                                                                                                    
                                                                                                    
                                                                                                    
                                                                                                    
                                                                                                    
                                                                                                    
                                                                                                    
                                                                                                    
                                                                                                    
                                                                                                    
                                                                                                    
                                                                                                    
                                                                                                    
                                                                                                    
                                                                                                    
                                                                                                    
                                                                                                    
                           
<?xpacket end="w"?></metadata>
<defs>
    <style>
      .cls-1 {
        fill: #0d2431;
        fill-rule: evenodd;
      }
    </style>
  </defs>
  <path class="cls-1" d="M239.283,195.786a0.75,0.75,0,0,0-.218-0.541h0a0.749,0.749,0,0,0-.523-0.219h-1.773a0.086,0.086,0,0,1,.015.058v8.37a0.214,0.214,0,0,1-.218.218,0.273,0.273,0,0,1-.117-0.029l-2.63-1.46-2.63,1.46a0.211,0.211,0,0,1-.291-0.073,0.174,0.174,0,0,1-.029-0.116h0v-8.428h-6.147v20.082h6.728a7.314,7.314,0,0,1-.8-3.33,7.24,7.24,0,0,1,2.093-5.1,7.168,7.168,0,0,1,5.071-2.1,6.871,6.871,0,0,1,1.468.146v-8.938h0Zm-2.935-.76h-5.057a0.091,0.091,0,0,1,.014.058v8l2.412-1.358a0.25,0.25,0,0,1,.2,0l2.427,1.358v-8.062h0Zm-12.643,0h-1.933a0.814,0.814,0,0,0-.538.219l-0.014.029a0.708,0.708,0,0,0-.2.512h0v18.563h0a0.822,0.822,0,0,0,.218.541,0.813,0.813,0,0,0,.538.218h1.933V195.026Zm8.4,21.1H221.772A1.791,1.791,0,0,1,220,214.349h0V195.786h0a1.789,1.789,0,0,1,.494-1.227,0.053,0.053,0,0,1,.029-0.029,1.751,1.751,0,0,1,1.25-.526h16.77a1.775,1.775,0,0,1,1.25.526h-0.015a1.707,1.707,0,0,1,.523,1.256h0v9.23a7.106,7.106,0,0,1,2.587,1.665,7.22,7.22,0,0,1,0,10.195,7.131,7.131,0,0,1-10.143,0,6.161,6.161,0,0,1-.64-0.745h0Zm5.711-6.324a1.94,1.94,0,0,1,1.4.584h0a1.986,1.986,0,0,1,.581,1.387,1.8,1.8,0,0,1-.087.57l3.647,2.147a6.259,6.259,0,0,0,.625-2.717,6.187,6.187,0,0,0-1.8-4.367,6.147,6.147,0,0,0-7-1.212l2.179,3.666a1.625,1.625,0,0,1,.465-0.058h0Zm1.715,2.95a2.2,2.2,0,0,1-.319.424h0a2.009,2.009,0,0,1-.451.335l2.151,3.623a6.229,6.229,0,0,0,2.238-2.249Zm-1.177.935a2.162,2.162,0,0,1-.538.073,1.965,1.965,0,0,1-1.4-.584h0a2.01,2.01,0,0,1-.566-1.4,2.205,2.205,0,0,1,.072-0.525l-3.647-2.162a6.182,6.182,0,0,0,5.536,8.88,6.287,6.287,0,0,0,2.718-.628Zm-2.267-2.848a1.75,1.75,0,0,1,.334-0.453,2.063,2.063,0,0,1,.509-0.379l-2.151-3.608a6.284,6.284,0,0,0-1.308,1.007,5.41,5.41,0,0,0-.988,1.3Zm2.412,0.263a0.96,0.96,0,0,0-.683-0.278,0.927,0.927,0,0,0-.668.278,0.941,0.941,0,0,0-.276.671,0.975,0.975,0,0,0,.276.687h0a0.992,0.992,0,0,0,.668.278,1.028,1.028,0,0,0,.683-0.278,1.04,1.04,0,0,0,.277-0.687,0.954,0.954,0,0,0-.291-0.671H238.5Z" transform="translate(-220 -194)"/>
</svg>
