<svg width="19" height="19" viewBox="0 0 19 19" fill="none" xmlns="http://www.w3.org/2000/svg">
    <path d="M1.41672 17.582L1.41737 17.5826C1.82888 17.9941 2.40019 18.25 3.02598 18.25H15.974C16.6003 18.25 17.1685 17.9938 17.582 17.5833L17.5833 17.582C17.9938 17.1685 18.25 16.6003 18.25 15.974V3.02597C18.25 2.3996 17.9937 1.83112 17.58 1.41736C17.1687 1.0061 16.6002 0.75 15.974 0.75H3.02598C2.40027 0.75 1.82876 1.00581 1.41705 1.42036C1.00598 1.8316 0.75 2.4 0.75 3.02597V15.974C0.75 16.6003 1.00619 17.1685 1.41672 17.582Z" fill="#F02B20" stroke="#F02B20" stroke-width="0.5"/>
    <path d="M4.904 10.92C4.904 11.2453 4.864 11.54 4.784 11.804C4.704 12.0653 4.58267 12.2907 4.42 12.48C4.26 12.6667 4.05867 12.8107 3.816 12.912C3.57333 13.0133 3.29067 13.064 2.968 13.064C2.82133 13.064 2.676 13.0547 2.532 13.036C2.39067 13.02 2.24133 12.9933 2.084 12.956L2.148 12.252C2.156 12.188 2.18133 12.1373 2.224 12.1C2.26667 12.06 2.328 12.04 2.408 12.04C2.45333 12.04 2.51067 12.048 2.58 12.064C2.652 12.08 2.74 12.088 2.844 12.088C2.988 12.088 3.11333 12.068 3.22 12.028C3.32667 11.988 3.416 11.9227 3.488 11.832C3.56 11.7413 3.61333 11.624 3.648 11.48C3.68533 11.3333 3.704 11.156 3.704 10.948V7.196H4.904V10.92ZM7.26113 11.004V13H6.06113V7.196H8.02113C8.41846 7.196 8.76113 7.24267 9.04913 7.336C9.33979 7.42933 9.57846 7.56 9.76513 7.728C9.95179 7.89333 10.0891 8.09067 10.1771 8.32C10.2678 8.54933 10.3131 8.79867 10.3131 9.068C10.3131 9.35333 10.2665 9.61467 10.1731 9.852C10.0798 10.0893 9.93846 10.2933 9.74913 10.464C9.55979 10.6347 9.32113 10.768 9.03313 10.864C8.74513 10.9573 8.40779 11.004 8.02113 11.004H7.26113ZM7.26113 10.084H8.02113C8.39713 10.084 8.67179 9.99333 8.84513 9.812C9.02113 9.63067 9.10913 9.38267 9.10913 9.068C9.10913 8.924 9.08646 8.79333 9.04113 8.676C8.99846 8.556 8.93179 8.45467 8.84113 8.372C8.75313 8.28667 8.64113 8.22133 8.50513 8.176C8.36913 8.13067 8.20779 8.108 8.02113 8.108H7.26113V10.084ZM15.8928 12.44C15.5968 12.656 15.2808 12.8147 14.9448 12.916C14.6114 13.0147 14.2581 13.064 13.8848 13.064C13.4074 13.064 12.9754 12.9907 12.5888 12.844C12.2021 12.6947 11.8714 12.488 11.5968 12.224C11.3221 11.96 11.1101 11.6467 10.9608 11.284C10.8114 10.9213 10.7368 10.5253 10.7368 10.096C10.7368 9.66133 10.8074 9.26267 10.9488 8.9C11.0928 8.53733 11.2968 8.22533 11.5608 7.964C11.8248 7.70267 12.1434 7.49867 12.5168 7.352C12.8928 7.20533 13.3128 7.132 13.7768 7.132C14.0168 7.132 14.2408 7.152 14.4488 7.192C14.6568 7.22933 14.8488 7.28267 15.0248 7.352C15.2008 7.41867 15.3621 7.49867 15.5088 7.592C15.6554 7.68533 15.7888 7.788 15.9088 7.9L15.5608 8.436C15.5074 8.52133 15.4381 8.57333 15.3528 8.592C15.2674 8.61067 15.1741 8.58933 15.0728 8.528C14.9768 8.46933 14.8821 8.41733 14.7888 8.372C14.6981 8.324 14.6008 8.28267 14.4968 8.248C14.3928 8.21333 14.2794 8.18667 14.1568 8.168C14.0341 8.14933 13.8928 8.14 13.7328 8.14C13.4634 8.14 13.2194 8.18667 13.0008 8.28C12.7821 8.37333 12.5954 8.50533 12.4408 8.676C12.2888 8.84667 12.1714 9.052 12.0888 9.292C12.0061 9.532 11.9648 9.8 11.9648 10.096C11.9648 10.416 12.0101 10.7027 12.1008 10.956C12.1914 11.2067 12.3194 11.4187 12.4848 11.592C12.6501 11.7653 12.8474 11.8973 13.0768 11.988C13.3088 12.0787 13.5661 12.124 13.8488 12.124C14.0408 12.124 14.2114 12.1053 14.3608 12.068C14.5128 12.028 14.6608 11.9747 14.8048 11.908V10.932H14.1488C14.0714 10.932 14.0101 10.912 13.9648 10.872C13.9221 10.8293 13.9008 10.776 13.9008 10.712V10.044H15.8928V12.44Z" fill="white"/>
</svg>
