<?xml version="1.0" encoding="utf-8"?>
<!-- Generator: Adobe Illustrator 19.1.1, SVG Export Plug-In . SVG Version: 6.00 Build 0)  -->
<svg version="1.1" id="Слой_1" xmlns="http://www.w3.org/2000/svg" xmlns:xlink="http://www.w3.org/1999/xlink" x="0px" y="0px"
	 viewBox="0 0 100.187 32.132" style="enable-background:new 0 0 100.187 32.132;" xml:space="preserve">
<style type="text/css">
	.st0{fill:#0C8DCD;}
	.st1{font-family:'GoodCyr-WideBlack';}
	.st2{font-size:20.7638px;}
	.st3{font-size:9.2283px;}
	.st4{fill:#16263F;}
</style>
<g>
	<text transform="matrix(1.0002 0 0 1 0 17.9087)" class="st0 st1 st2">M</text>
	<text transform="matrix(1.0002 0 0 1 20 17.9087)" class="st0 st1 st2">U</text>
	<text transform="matrix(1.0002 0 0 1 36.1484 17.9087)" class="st0 st1 st2">S</text>
	<text transform="matrix(1.0002 0 0 1 50 17.9087)" class="st0 st1 st2">I</text>
	<text transform="matrix(1.0002 0 0 1 58.4531 17.9087)" class="st0 st1 st2">C</text>
	<text transform="matrix(1.0002 0 0 1 72.3047 17.9087)" class="st0 st1 st2">A</text>
	<text transform="matrix(1.0002 0 0 1 88.4531 17.9087)" class="st0 st1 st2">L</text>
	<text transform="matrix(1.0002 0 0 1 0.7813 30.2134)"><tspan x="0" y="0" class="st0 st1 st3">I</tspan><tspan x="3.082" y="0" class="st0 st1 st3">N</tspan><tspan x="10.003" y="0" class="st0 st1 st3">S</tspan><tspan x="15.393" y="0" class="st0 st1 st3">T</tspan><tspan x="20.782" y="0" class="st0 st1 st3">R</tspan><tspan x="26.937" y="0" class="st0 st1 st3">U</tspan><tspan x="33.859" y="0" class="st0 st1 st3">M</tspan><tspan x="42.321" y="0" class="st0 st1 st3">E</tspan><tspan x="47.71" y="0" class="st0 st1 st3">N</tspan><tspan x="54.631" y="0" class="st0 st1 st3">T</tspan></text>
	<text transform="matrix(1.0002 0 0 1 63.0859 30.2134)"><tspan x="0" y="0" class="st4 st1 st3">S</tspan><tspan x="5.389" y="0" class="st4 st1 st3">H</tspan><tspan x="12.311" y="0" class="st4 st1 st3">O</tspan><tspan x="18.466" y="0" class="st4 st1 st3">PP</tspan><tspan x="30.776" y="0" class="st4 st1 st3">E</tspan></text>
</g>
</svg>
